<?xml version="1.0" standalone="no"?>
<!DOCTYPE svg PUBLIC "-//W3C//DTD SVG 20010904//EN"
 "http://www.w3.org/TR/2001/REC-SVG-20010904/DTD/svg10.dtd">
<svg version="1.0" xmlns="http://www.w3.org/2000/svg"
 width="310.000000pt" height="310.000000pt" viewBox="0 0 310.000000 310.000000"
 preserveAspectRatio="xMidYMid meet">
<metadata>
Created by potrace 1.11, written by Peter Selinger 2001-2013
</metadata>
<g transform="translate(0.000000,310.000000) scale(0.100000,-0.100000)"
fill="#000000" stroke="none">
<path d="M1495 3036 c-207 -34 -375 -119 -531 -268 -145 -139 -258 -331 -318
-541 -49 -168 -60 -258 -60 -467 1 -177 3 -204 27 -292 52 -194 167 -364 316
-462 86 -57 139 -80 259 -110 164 -42 200 -82 330 -363 43 -92 94 -194 115
-225 104 -163 225 -234 417 -245 182 -10 322 45 455 181 95 96 144 185 152
276 13 143 -58 170 -146 56 -60 -78 -150 -159 -207 -187 -34 -16 -66 -23 -109
-23 -113 0 -194 61 -257 194 -113 241 -129 268 -182 318 l-53 50 66 27 c305
124 534 415 631 800 56 219 64 505 20 683 -60 249 -220 446 -435 541 -133 59
-337 82 -490 57z m306 -333 c179 -89 269 -280 269 -577 0 -383 -122 -688 -338
-843 -104 -74 -180 -98 -318 -98 -107 0 -112 1 -186 38 -122 60 -202 166 -245
327 -28 102 -25 409 5 549 70 324 254 558 492 627 27 8 87 12 150 11 97 -2
112 -5 171 -34z"/>
</g>
</svg>
